<svg width="512" height="512" viewBox="0 0 512 512" fill="none" xmlns="http://www.w3.org/2000/svg">
  <defs>
    <linearGradient id="appBg" x1="130" y1="78" x2="384" y2="424" gradientUnits="userSpaceOnUse">
      <stop stop-color="#FF2F92"/>
      <stop offset="0.56" stop-color="#FF7043"/>
      <stop offset="1" stop-color="#FFD34D"/>
    </linearGradient>
    <linearGradient id="panel" x1="160" y1="155" x2="356" y2="348" gradientUnits="userSpaceOnUse">
      <stop stop-color="#FFF7EC"/>
      <stop offset="1" stop-color="#FFE0D1"/>
    </linearGradient>
    <linearGradient id="pinkCard" x1="180" y1="225" x2="330" y2="303" gradientUnits="userSpaceOnUse">
      <stop stop-color="#FFB799"/>
      <stop offset="1" stop-color="#FF73B6"/>
    </linearGradient>
    <filter id="softShadow" x="103" y="85" width="322" height="352" filterUnits="userSpaceOnUse" color-interpolation-filters="sRGB">
      <feFlood flood-opacity="0" result="BackgroundImageFix"/>
      <feColorMatrix in="SourceAlpha" type="matrix" values="0 0 0 0 0 0 0 0 0 0 0 0 0 0 0 0 0 0 127 0" result="hardAlpha"/>
      <feOffset dy="18"/>
      <feGaussianBlur stdDeviation="18"/>
      <feComposite in2="hardAlpha" operator="out"/>
      <feColorMatrix type="matrix" values="0 0 0 0 0.5 0 0 0 0 0.13 0 0 0 0 0.1 0 0 0 0.2 0"/>
      <feBlend mode="normal" in2="BackgroundImageFix" result="effect1_dropShadow"/>
      <feBlend mode="normal" in="SourceGraphic" in2="effect1_dropShadow" result="shape"/>
    </filter>
  </defs>

  <rect width="512" height="512" fill="white"/>
  <rect x="106" y="64" width="300" height="300" rx="76" fill="url(#appBg)"/>

  <path d="M155 166C184 143 217 137 251 150C281 162 302 187 332 185C354 184 373 172 390 155" stroke="white" stroke-opacity="0.22" stroke-width="12" stroke-linecap="round"/>
  <path d="M133 276L145 285L139 299L151 290L164 299L158 285L170 276L155 276L151 262L146 276H133Z" fill="#FFF3BD"/>
  <path d="M377 114L386 136L409 145L386 154L377 177L368 154L345 145L368 136L377 114Z" fill="#FFF3BD"/>

  <g filter="url(#softShadow)">
    <rect x="158" y="146" width="196" height="196" rx="38" fill="white" fill-opacity="0.24"/>
    <rect x="171" y="133" width="176" height="176" rx="32" fill="url(#panel)"/>
    <rect x="185" y="148" width="148" height="148" rx="22" stroke="white" stroke-width="9" stroke-opacity="0.82"/>

    <circle cx="208" cy="176" r="12" fill="#FF4E45"/>
    <circle cx="239" cy="176" r="12" fill="#FF982F"/>
    <circle cx="270" cy="176" r="12" fill="#FFD34D"/>
    <circle cx="301" cy="176" r="12" fill="#5BD3C8"/>
    <circle cx="327" cy="176" r="12" fill="#7A63FF"/>

    <path d="M199 202H319" stroke="#FF7C85" stroke-width="7" stroke-linecap="round"/>
    <rect x="199" y="222" width="120" height="66" rx="14" fill="url(#pinkCard)"/>

    <text x="259" y="266" text-anchor="middle" font-family="Arial, 'Microsoft YaHei', sans-serif" font-size="50" font-weight="900" fill="#11213C">小彻</text>
    <text x="259" y="287" text-anchor="middle" font-family="Arial, 'Microsoft YaHei', sans-serif" font-size="16" font-weight="800" letter-spacing="2" fill="#F45F6B">工作台</text>
  </g>

  <text x="256" y="448" text-anchor="middle" font-family="Arial, 'Microsoft YaHei', sans-serif" font-size="54" font-weight="900" fill="#0F1D33">小彻工作台</text>
</svg>
